<svg width="18" height="27" viewBox="0 0 18 27" fill="none" xmlns="http://www.w3.org/2000/svg">
<path d="M-1.53956e-07 0.532625C1.61435 0.245827 3.79372 0 6.53812 0C9.88789 0 12.3901 0.778452 13.9238 2.21244C15.3767 3.48255 16.2242 5.44917 16.2242 7.82549C16.2242 10.2428 15.5381 12.1684 14.2063 13.5615C12.3901 15.5281 9.4843 16.5114 6.13453 16.5114C5.12556 16.5114 4.15695 16.4704 3.39013 16.2656V27H-1.53956e-07V0.532625ZM3.39013 13.4385C4.11659 13.6434 5.0852 13.7253 6.21525 13.7253C10.3318 13.7253 12.8341 11.7178 12.8341 7.98938C12.8341 4.46586 10.3722 2.74507 6.61883 2.74507C5.12556 2.74507 3.99552 2.86798 3.39013 3.03187V13.4385Z" transform="translate(1.77576)" fill="black"/>
<path d="M12.1076 0H0V2.45827H12.1076V0Z" transform="translate(0 19.6663)" fill="black"/>
<path d="M9.6861 0H0V2.45827H9.6861V0Z" transform="translate(0 13.9302)" fill="black"/>
</svg>
